PathFileType	4	(X/Y/Z)	Beam_150-250.trc
DataRate	CameraRate	NumFrames	NumMarkers	Units	OrigDataRate	OrigDataStartFrame	OrigNumFrames
60	60	9	21	m	60	25	99
Frame#	Time	RHip			RKnee			RAnkle			RBigToe			RSmallToe			RHeel			LHip			LKnee			LAnkle			LBigToe			LSmallToe			LHeel			Neck			Head			Nose			RShoulder			RElbow			RWrist			LShoulder			LElbow			LWrist		
		X1	Y1	Z1	X2	Y2	Z2	X3	Y3	Z3	X4	Y4	Z4	X5	Y5	Z5	X6	Y6	Z6	X7	Y7	Z7	X8	Y8	Z8	X9	Y9	Z9	X10	Y10	Z10	X11	Y11	Z11	X12	Y12	Z12	X13	Y13	Z13	X14	Y14	Z14	X15	Y15	Z15	X16	Y16	Z16	X17	Y17	Z17	X18	Y18	Z18	X19	Y19	Z19	X20	Y20	Z20	X21	Y21	Z21	
25	2.933333333333333	-0.16550268830262793	0.9498105197059797	-1.2003209919118725	-0.3751501764149935	0.6147348872232548	-1.063633879867554	-0.3420021882784953	0.24259993506336458	-1.277709074669357	-0.38016103776361587	0.14252487693526264	-1.133450357919072	-0.42157684378234606	0.14901975901043635	-1.1755285644106568	-0.31604997576688965	0.21557311898519266	-1.3166507360821444	0.02549873097762416	0.8762830252201068	-1.1727261983639865	-0.06114982538891237	0.5279435262093928	-0.9498483465768166	-0.013234768108775096	0.14631820712141563	-1.1563806934086385	-0.00930789515425347	0.08158196025652106	-0.996072145040082	0.02428381337309777	0.08178810620965363	-1.0362351596917099	-0.005226364507554785	0.11517285560999513	-1.2127428044547408	0.18716793011034386	1.3949653429787086	-1.1424996649384078	0.2750518846948279	1.6077258145918158	-0.99348049326221	0.21390214689034937	1.4775769920287012	-0.959229614793474	0.024513829583292755	1.4322259945917735	-1.180800233723424	-0.20890074750199086	1.3879759236946487	-1.2279475661844899	-0.3534484472946509	1.4782145008501992	-1.0820197969496932	0.3080166851827707	1.2686990630018105	-1.1510183854912233	0.34220216768750916	0.983252350087929	-1.14349264938433	0.33498248728831026	0.7313900467210509	-1.0890031002627731
26	2.95	-0.169228590671954	0.9499206115896174	-1.1953334855696909	-0.3876868356933441	0.621434406306405	-1.0553193918633006	-0.38015259380303007	0.24271524816393628	-1.253873955249892	-0.41894125757284845	0.14731680655465135	-1.1080432212733873	-0.46077798880095017	0.15369087031495712	-1.1506921272747241	-0.3577973863638755	0.21526913328907027	-1.291948579678834	0.024893005824317773	0.874797218324113	-1.1604140054757348	-0.06148720962606955	0.5289605210126164	-0.9400369083414255	-0.012015143669911604	0.14638611245619199	-1.1551685100180702	-0.01030271571881589	0.08005190173648931	-0.9956464413486323	0.023607190853013712	0.08085201787184042	-1.0338482403472604	-0.004391589957171007	0.1145854135876242	-1.2115736069577485	0.1927648167691143	1.3885895259952683	-1.1360117147994904	0.28750531453350503	1.6040242439721724	-0.9793248846085156	0.2197880867767438	1.4739360325950706	-0.9516888126371162	0.03132949470084512	1.4301201556740903	-1.1675279500738251	-0.20457211749592355	1.394611292032314	-1.2225761690949137	-0.3472856628224426	1.4879292747285706	-1.0821910648615984	0.31120093877914073	1.2619793735234446	-1.1459285679538136	0.33949014281935913	0.977206555727087	-1.1388054951946787	0.3328678487213644	0.7223771666492523	-1.0749025264224372
27	2.966666666666667	-0.17220721227509625	0.951114776958711	-1.1858394140002035	-0.39976137481155655	0.627148981932112	-1.0476089288931902	-0.41795185822036923	0.24582960157949893	-1.2303459574971094	-0.45787089475882814	0.15486485626266935	-1.0824279103744308	-0.49873510505014457	0.16070427042743402	-1.1288774853459949	-0.3991892547684355	0.21728366171370647	-1.2695168772550744	0.02304196651027455	0.8737013800574607	-1.1513164778229164	-0.06205794461931325	0.528107177469284	-0.9337337708441379	-0.011308872191437969	0.145431671926842	-1.1544798815230355	-0.011158637760632865	0.07901991166169166	-0.9953786716696382	0.02289800798451986	0.07987057096679784	-1.0320757898923048	-0.0037334670039032053	0.11299556925172065	-1.2104025764359154	0.19793611027830113	1.3821989529128937	-1.1288788290773613	0.2992195520955283	1.5999051571624154	-0.9666031860127506	0.22515517394017245	1.469827995968713	-0.9452296923270666	0.03815843087454349	1.4277543122694432	-1.1550464727804008	-0.2004435451829197	1.4018194700618378	-1.2170294116651428	-0.34092534829601384	1.4974885943393579	-1.0813714883162115	0.3140883712888396	1.255277325129596	-1.1418056070138054	0.337027945652729	0.9707987908700976	-1.1341006714114503	0.33140169248057977	0.715269687855431	-1.0617696015176379
28	2.9833333333333334	-0.17438549991499636	0.953481641159127	-1.1722212358491664	-0.41162927777172703	0.6327138480109826	-1.03948849920876	-0.4540534498378209	0.25137066783551376	-1.2080908930749077	-0.4951332840261262	0.1652433017241722	-1.0580146774325918	-0.534375495623965	0.1700626829995777	-1.1097707461315542	-0.4393675544504151	0.22156974660626513	-1.2491925647238369	0.020275424566475065	0.8728784843978019	-1.1453990971181605	-0.06302240618134655	0.5259275056980348	-0.9299797838438654	-0.011244957011518928	0.1439956093262573	-1.1542531371313425	-0.011677895555682341	0.07834964421046502	-0.9955992336407472	0.022434955382202342	0.07902853859881744	-1.0310150717685804	-0.003475088567090411	0.11103694400151198	-1.2092011892525163	0.2025958994881843	1.3759965272057335	-1.1212523444188978	0.30980880616136763	1.5948064992193183	-0.9561358167300665	0.23069222906863895	1.4645614993891518	-0.9392537257001998	0.04468894716728394	1.4252172716662141	-1.143755435025337	-0.19633816634949514	1.4090527511793527	-1.2114349039369836	-0.3344605798122836	1.507263294134444	-1.079644202389332	0.3168219808223692	1.2485808547534696	-1.1382929822823271	0.3356629680829662	0.9639994193258419	-1.1287069594978771	0.3304896257550917	0.7100101422997962	-1.049330956714008
29	3.0	-0.17616706514134195	0.9564401793810292	-1.1569712870343707	-0.42329759489260244	0.6386813076825169	-1.0309224100388563	-0.4876223168513705	0.2588057669737568	-1.187266195339448	-0.5291011309914729	0.17724381521200697	-1.0370447431862972	-0.5669083224350547	0.18160791738868476	-1.0925940988317198	-0.47730818947857045	0.22771830784717476	-1.2306300249402355	0.01691927090110777	0.8720545447747795	-1.141790424111281	-0.06415224087635113	0.5229506522174754	-0.9277834450804225	-0.011680014596082762	0.14262670237884947	-1.154528368849376	-0.011760735681652021	0.07787366321782584	-0.9964061724269332	0.022310299851818375	0.07848856295360596	-1.0306008884790319	-0.003624850936166177	0.10923763175188513	-1.2081750560416697	0.20676302707081043	1.3702374256563947	-1.1134862390666027	0.3194949138084541	1.5888948189762107	-0.9474313274988451	0.23705132130246834	1.457643241438361	-0.9331986107301579	0.05049380488766247	1.4225525975934863	-1.134334198237637	-0.19242921678375385	1.415779123672539	-1.2065041469479605	-0.32771383845727525	1.5174805587500997	-1.076928866703914	0.3195009773741978	1.2419671959500724	-1.134820443972027	0.3359709738253927	0.9568547172689799	-1.1223726602736346	0.33014609404197315	0.706135932546164	-1.0373826750082444
30	3.0166666666666666	-0.17813722978947422	0.9592799586083031	-1.1426283628984124	-0.4346561136686753	0.6450220646784585	-1.0231301659770855	-0.5183844508458403	0.2676861963002463	-1.1677297948548355	-0.5590804493920237	0.18912083925957981	-1.021350219025776	-0.5962710868325501	0.19482570433767618	-1.076556551286799	-0.5121977660495591	0.23532245818519715	-1.2133947533105776	0.01345930033126461	0.8709419747221334	-1.1387176626982125	-0.06492292824169568	0.519610336279493	-0.9262417867081923	-0.012340546401666897	0.14164070642464435	-1.1553024146293849	-0.011353098482415842	0.07744459643128572	-0.9976316683640839	0.022470032805868855	0.07830688119904693	-1.0307655947835725	-0.003999998523405065	0.10790892719047995	-1.2075977752780191	0.21043967850785728	1.3650921352697456	-1.105825632505328	0.3286993729658913	1.5825320724313636	-0.9397139870882166	0.24461453951269643	1.4490166835934766	-0.9268661041284746	0.05520558114929835	1.419831860180215	-1.1275739812573087	-0.18917018882076528	1.4216294991069782	-1.2034070712332983	-0.3204104039749679	1.5282373584195796	-1.0729325912403773	0.32213646361426185	1.2355826486456396	-1.130842360943231	0.3379877343141537	0.9494071304521003	-1.1154654676495952	0.33040314163773216	0.7029399396591958	-1.0260995492694056
31	3.033333333333333	-0.18063742453722287	0.9616330360010499	-1.13051054013829	-0.4455547609172053	0.6512239230654643	-1.0177188583595898	-0.5463774750120077	0.2774321943688768	-1.1496232208077926	-0.5856098628833627	0.1996728261261416	-1.011135910637083	-0.6229828372020328	0.20882844567212247	-1.0612819622481164	-0.5437945508175984	0.2440900381631691	-1.1969767986393751	0.010362515849527376	0.8694229673608406	-1.1342696441625244	-0.06483321421547447	0.5163050073056558	-0.9246810703148161	-0.0129624237865064	0.14103992319886519	-1.1562897167157289	-0.010467232101612553	0.0769641563470532	-0.9990513334079222	0.022759147067013322	0.07840847762523118	-1.0313992218588104	-0.004370635458702129	0.10716620491576749	-1.2076370997008168	0.21361522377853226	1.3605002807816178	-1.09831176690352	0.3376620182277014	1.5757129194467083	-0.9328299365373375	0.2535524222576033	1.4391422556069353	-0.9207562135313557	0.05874735971381895	1.4171583110807298	-1.124017813953326	-0.18699408957927252	1.4264670260124679	-1.202866549028175	-0.31234301154250627	1.5394540063754467	-1.067545154952394	0.32468724659718323	1.229574522528293	-1.125908811634293	0.3412013864998773	0.9417708074834165	-1.1089631012305232	0.33126597157865323	0.6995499886182964	-1.0161230970683042
32	3.05	-0.18367281314476863	0.9634299681223781	-1.1209796534750212	-0.45589677745466206	0.6567634240838143	-1.0152355431110565	-0.5718988523897055	0.28750068861729855	-1.1332120730478294	-0.6101042929378651	0.2093390755862878	-1.0039816860115227	-0.6477978675120396	0.22273201357442057	-1.046795426329759	-0.5723391773013289	0.25373446946449724	-1.1809104503091348	0.007780305849263165	0.8675718454941199	-1.127418025735049	-0.06379494866163916	0.5133376119284313	-0.9228216929647878	-0.013415173553066833	0.14066998826064397	-1.1570036327659783	-0.009308735306137069	0.07638861834362498	-1.000482761528536	0.02294538111328602	0.07862723391043999	-1.0323313658110336	-0.0046708796631767325	0.10701622039396176	-1.2082389778377884	0.21638132070923627	1.3562001053307249	-1.090984097063287	0.34639330443812083	1.5681898199076798	-0.9269123616049116	0.26385183123534667	1.4287964134439937	-0.915749018577607	0.06136732549304902	1.4146183717991374	-1.1236474583099267	-0.1859970828314307	1.4303726410017341	-1.2046711550162312	-0.30345897443155156	1.5509531995011008	-1.06106306834511	0.3271493609033499	1.22406164000828	-1.1196482188983297	0.34498642782001654	0.9342088054520581	-1.1039333066100314	0.33269116424510264	0.6951290068967348	-1.008383688972254
33	3.066666666666667	-0.1871615722402571	0.9646181638761032	-1.1139660357370667	-0.46566767979321616	0.6617196475663762	-1.0143145068019295	-0.5955082129952137	0.29777253228880507	-1.1183522697415305	-0.634172009022803	0.22004333019549882	-0.9956232078361743	-0.6714648661187543	0.23610955232372863	-1.033193263074296	-0.5984208815067865	0.2639275503802095	-1.1650728301157345	0.00550074452920344	0.8656177013919785	-1.118651509055591	-0.062339112158398845	0.5109017071560057	-0.9208636279214257	-0.013769580898766225	0.1404886659736896	-1.1571541221187827	-0.008259311469253383	0.07573216537007706	-1.001720957191829	0.02282838892429383	0.07873761674920092	-1.0334872500327195	-0.005047342457457854	0.10744796389949775	-1.2091254355378822	0.21893862870889308	1.3519202867320057	-1.0840156139465074	0.3547644476891756	1.5599240483534325	-0.9220425114505814	0.27507042573544654	1.4187979799839736	-0.9122335925678897	0.06348174937946917	1.412287598004936	-1.1253457781598266	-0.18584934301780445	1.4336552667580986	-1.2077200375692014	-0.2938455273967693	1.5626237671550423	-1.053830295122493	0.3296032949789094	1.2191159381875936	-1.1118692434586732	0.3490280350629196	0.927019864408748	-1.100878687349471	0.33459266409347066	0.6893040976315481	-1.0033280215134404
